# xmcd
# 
# Track frame offsets:
#     150
#     10739
#     22851
#     34485
#     46621
#     59326
#     68355
#     80955
#     92617
#     103473
#     116023
#     125004
#     134845
#     150107
#     160290
# 
# Disc length: 2229
# 
# Revision: 3
# Processed by: cddbd v1.5.2PL0 Copyright (c) Steve Scherf et al.
# Submitted via: fre:ac v1.0.31
# 
DISCID=c208b30f
DTITLE=Conway Twitty - It's Only Make Believe
DYEAR=0
DGENRE=Country
TTITLE0=Its Only Make Beleive
TTITLE1=Linda On My Mind
TTITLE2=Sitting In A Dim Cafe
TTITLE3=To See My Angel Cry
TTITLE4=Reputation
TTITLE5=I Wonder If You Told Her About Me
TTITLE6=I See The Want In Your Eyes
TTITLE7=I'm Not Through Lovin You
TTITLE8=Have I Been Away Too Long
TTITLE9=I've Already Loved You In My Mind
TTITLE10=The Road That I Walk
TTITLE11=Riskin' One
TTITLE12=Play Guitar Play
TTITLE13=Let Me Be The Judge
TTITLE14=Treat Me Mean Treat Me Cruel
EXTD=
EXTT0=
EXTT1=
EXTT2=
EXTT3=
EXTT4=
EXTT5=
EXTT6=
EXTT7=
EXTT8=
EXTT9=
EXTT10=
EXTT11=
EXTT12=
EXTT13=
EXTT14=
PLAYORDER=
